<svg version="1" xmlns="http://www.w3.org/2000/svg" width="933.333" height="933.333" viewBox="0 0 700.000000 700.000000"><path d="M161.5 141.4c-6.2 2.9-11.7 8.6-14.7 15.1l-2.3 5-.3 55.7c-.2 38.4 0 55.8.8 55.8.5 0 5.2-.7 10.2-1.6 6.7-1.2 12.6-1.5 21.1-1.1l11.7.5V182l218.8.2 218.7.3.3 138.2.2 138.3-123.7.1H378.5l-20.8 22-20.8 21.9h154c148.7 0 154.3-.1 159.1-1.9 7.5-2.9 12.5-7.4 16-14.4l3-6.2-.2-160.5-.3-160.5-2.5-4.9c-1.4-2.7-4.4-6.6-6.8-8.7-8.6-7.5 13.7-6.9-253.1-6.9H166.5l-5 2.4z"/><path d="M158 300.6c-8.5 1.8-21.2 8.2-27.7 13.9-7.3 6.4-14.7 17.9-17.9 27.8-3.3 10.3-3.7 25.7-1 35.2 4.9 16.7 16.7 31 31.7 38.4 18.5 9.1 37.6 9.2 55.9.3 11.1-5.4 22.4-16.9 27.8-28.2 4.8-10.1 6.2-16.3 6.2-27 0-10.6-1.4-17-6-26.5-12.7-26.4-40.5-40.1-69-33.9z"/><path d="M371.3 339.3c-4.5 1.9-11.7 9-57.8 57.2-29 30.2-54.1 56.4-55.9 58.2l-3.1 3.2-8-3.6c-20.2-8.9-36.1-12.8-63.6-15.3-33.8-3.1-77.6 8.1-108.2 27.7-8.4 5.4-18.4 12.9-21 15.8-4.6 5.1-7.8 14.9-15.2 45.7-4.1 17.5-7.5 32-7.5 32.3 0 .3 48.9.5 108.8.5h108.7l31-36.2c27.7-32.4 42.1-47.9 120.6-130.6 7.5-7.9 10.2-11.5 11.8-15.8 2.9-7.7 2.8-17.3-.3-23.9-2.9-6.3-11.1-13.8-17.3-15.9-6.8-2.3-16.7-2-23 .7z"/></svg>